# xmcd
#
# Track frame offsets: 
#        150
#        16820
#        38570
#        52125
#        59968
#        72920
#        84078
#        100783
#        116990
#        131650
#        152843
#        166903
#        189040
#        208175
#        220465
#        232893
#        247753
#        258043
#        271483
#        295573
#
# Disc length: 4079 seconds
#
# Revision: 0
# Processed by: cddbd v1.5.2PL0 Copyright (c) Steve Scherf et al.
# Submitted via: ExactAudioCopy v1.0b4
#
DISCID=160fed14
DTITLE=Leslie West - The Leslie West Band and The Great Fatsby
DYEAR=1975
DGENRE=Blues Rock
TTITLE0=Money (Whatcha Gonna Do)
TTITLE1=Dear Prudence
TTITLE2=Get It Up (No Bass-Whatsoe
TTITLE3=Singapore Sing
TTITLE4=By The River
TTITLE5=The Twister
TTITLE6=Setting Sun
TTITLE7=Sea Of Heartache
TTITLE8=We'll Find A Way
TTITLE9=We Gotta Get Out Of This Place
TTITLE10=Dont Burn Me
TTITLE11=House Of The Rising Sun
TTITLE12=High Roller
TTITLE13=I`am Gonna Love You Thru The Night
TTITLE14=E.S.P.
TTITLE15=Honky Tonk Women
TTITLE16=If I Still Had You
TTITLE17=Doctor Love
TTITLE18=If I Where A Carpenter
TTITLE19=We Gotta Get Out Of This Place
EXTD=
EXTT0=
EXTT1=
EXTT2=
EXTT3=
EXTT4=
EXTT5=
EXTT6=
EXTT7=
EXTT8=
EXTT9=
EXTT10=
EXTT11=
EXTT12=
EXTT13=
EXTT14=
EXTT15=
EXTT16=
EXTT17=
EXTT18=
EXTT19=
PLAYORDER=
